{
	"asset":{
		"generator":"Khronos glTF Blender I/O v4.0.44",
		"version":"2.0"
	},
	"scene":0,
	"scenes":[
		{
			"name":"Scene",
			"nodes":[
				0
			]
		}
	],
	"nodes":[
		{
			"mesh":0,
			"name":"Cylinder.001",
			"translation":[
				0,
				2.0491795539855957,
				0
			]
		}
	],
	"materials":[
		{
			"doubleSided":true,
			"name":"Shader",
			"pbrMetallicRoughness":{
				"baseColorFactor":[
					0.800000011920929,
					0.800000011920929,
					0.800000011920929,
					1
				],
				"metallicFactor":0,
				"roughnessFactor":0.5
			}
		},
		{
			"doubleSided":true,
			"name":"Model",
			"pbrMetallicRoughness":{
				"baseColorTexture":{
					"index":0
				},
				"metallicFactor":0,
				"roughnessFactor":0.5
			}
		}
	],
	"meshes":[
		{
			"name":"Cylinder.004",
			"primitives":[
				{
					"attributes":{
						"POSITION":0,
						"NORMAL":1,
						"TEXCOORD_0":2
					},
					"indices":3,
					"material":0
				},
				{
					"attributes":{
						"POSITION":4,
						"NORMAL":5,
						"TEXCOORD_0":6
					},
					"indices":7,
					"material":1
				}
			]
		}
	],
	"textures":[
		{
			"sampler":0,
			"source":0
		}
	],
	"images":[
		{
			"mimeType":"image/png",
			"name":"zone02_heal_base",
			"uri":"zone02_heal_base.png"
		}
	],
	"accessors":[
		{
			"bufferView":0,
			"componentType":5126,
			"count":74,
			"max":[
				2.5988335609436035,
				5.239539623260498,
				2.5988335609436035
			],
			"min":[
				-2.5988335609436035,
				-0.06387034058570862,
				-2.5988335609436035
			],
			"type":"VEC3"
		},
		{
			"bufferView":1,
			"componentType":5126,
			"count":74,
			"type":"VEC3"
		},
		{
			"bufferView":2,
			"componentType":5126,
			"count":74,
			"type":"VEC2"
		},
		{
			"bufferView":3,
			"componentType":5123,
			"count":144,
			"type":"SCALAR"
		},
		{
			"bufferView":4,
			"componentType":5126,
			"count":474,
			"max":[
				2.354759693145752,
				0.33909985423088074,
				1.604886770248413
			],
			"min":[
				-3.1428353786468506,
				-1.138713002204895,
				-4.5844926834106445
			],
			"type":"VEC3"
		},
		{
			"bufferView":5,
			"componentType":5126,
			"count":474,
			"type":"VEC3"
		},
		{
			"bufferView":6,
			"componentType":5126,
			"count":474,
			"type":"VEC2"
		},
		{
			"bufferView":7,
			"componentType":5123,
			"count":942,
			"type":"SCALAR"
		}
	],
	"bufferViews":[
		{
			"buffer":0,
			"byteLength":888,
			"byteOffset":0,
			"target":34962
		},
		{
			"buffer":0,
			"byteLength":888,
			"byteOffset":888,
			"target":34962
		},
		{
			"buffer":0,
			"byteLength":592,
			"byteOffset":1776,
			"target":34962
		},
		{
			"buffer":0,
			"byteLength":288,
			"byteOffset":2368,
			"target":34963
		},
		{
			"buffer":0,
			"byteLength":5688,
			"byteOffset":2656,
			"target":34962
		},
		{
			"buffer":0,
			"byteLength":5688,
			"byteOffset":8344,
			"target":34962
		},
		{
			"buffer":0,
			"byteLength":3792,
			"byteOffset":14032,
			"target":34962
		},
		{
			"buffer":0,
			"byteLength":1884,
			"byteOffset":17824,
			"target":34963
		}
	],
	"samplers":[
		{
			"magFilter":9729,
			"minFilter":9987
		}
	],
	"buffers":[
		{
			"byteLength":19708,
			"uri":"eye_scanner.bin"
		}
	]
}
